<svg xmlns="http://www.w3.org/2000/svg" xmlns:xlink="http://www.w3.org/1999/xlink" width="384" zoomAndPan="magnify" viewBox="0 0 288 187.499995" height="250" preserveAspectRatio="xMidYMid meet" version="1.0"><defs><g/><clipPath id="19981d7dd7"><path d="M 0.382812 0 L 287.617188 0 L 287.617188 187 L 0.382812 187 Z M 0.382812 0 " clip-rule="nonzero"/></clipPath><clipPath id="f35fb74b7f"><rect x="0" width="113" y="0" height="187"/></clipPath><clipPath id="6bd278eaa5"><path d="M 0.382812 2 L 83 2 L 83 164 L 0.382812 164 Z M 0.382812 2 " clip-rule="nonzero"/></clipPath><clipPath id="3fbdc77b4e"><rect x="0" width="83" y="0" height="162"/></clipPath><clipPath id="4875c805c7"><path d="M 205 3 L 287.617188 3 L 287.617188 165 L 205 165 Z M 205 3 " clip-rule="nonzero"/></clipPath><clipPath id="c6fae2ac3d"><rect x="0" width="83" y="0" height="162"/></clipPath><clipPath id="11b94e523e"><rect x="0" width="178" y="0" height="53"/></clipPath><clipPath id="8bcc172ba9"><rect x="0" width="288" y="0" height="187"/></clipPath></defs><g clip-path="url(#19981d7dd7)"><g transform="matrix(1, 0, 0, 1, 0.000000000000000111, 0)"><g clip-path="url(#8bcc172ba9)"><g transform="matrix(1, 0, 0, 1, 93, 0)"><g clip-path="url(#f35fb74b7f)"><g fill="#4ade80" fill-opacity="1"><g transform="translate(0.0603825, 140.519625)"><g><path d="M 67.015625 -115.28125 C 80.460938 -115.28125 90.617188 -112.207031 97.484375 -106.0625 C 104.359375 -99.914062 107.796875 -90.882812 107.796875 -78.96875 C 107.796875 -52.351562 93.578125 -39.046875 65.140625 -39.046875 L 40.34375 -39.046875 L 40.34375 0 L 28.828125 0 L 28.828125 -49.140625 L 62.6875 -49.140625 C 70.664062 -49.140625 77.078125 -50.144531 81.921875 -52.15625 C 86.773438 -54.175781 90.332031 -57.300781 92.59375 -61.53125 C 94.851562 -65.757812 95.984375 -71.332031 95.984375 -78.25 C 95.984375 -87.570312 93.195312 -94.394531 87.625 -98.71875 C 82.050781 -103.039062 73.351562 -105.203125 61.53125 -105.203125 L 20.171875 -105.203125 L 20.171875 0 L 8.640625 0 L 8.640625 -115.28125 Z M 28.828125 -97.125 L 63.40625 -97.125 C 71 -97.125 76.835938 -95.46875 80.921875 -92.15625 C 85.003906 -88.84375 87.046875 -83.96875 87.046875 -77.53125 C 87.046875 -70.800781 85.171875 -65.734375 81.421875 -62.328125 C 77.671875 -58.921875 71.859375 -57.21875 63.984375 -57.21875 L 28.828125 -57.21875 Z M 63.984375 -67.296875 C 71.472656 -67.296875 75.21875 -70.660156 75.21875 -77.390625 C 75.21875 -80.554688 74.28125 -82.957031 72.40625 -84.59375 C 70.539062 -86.226562 67.734375 -87.046875 63.984375 -87.046875 L 40.34375 -87.046875 L 40.34375 -67.296875 Z M 63.984375 -67.296875 "/></g></g></g></g></g><g clip-path="url(#6bd278eaa5)"><g transform="matrix(1, 0, 0, 1, 0.000000000000000111, 2)"><g clip-path="url(#3fbdc77b4e)"><g fill="#4ade80" fill-opacity="1"><g transform="translate(-1.35614, 130.531325)"><g><path d="M 77.40625 -11.75 L 6.6875 -42.5 L 6.6875 -59.53125 L 77.40625 -90.140625 L 77.40625 -70.078125 L 28.078125 -51.21875 L 77.40625 -31.671875 Z M 77.40625 -11.75 "/></g></g></g></g></g></g><g clip-path="url(#4875c805c7)"><g transform="matrix(1, 0, 0, 1, 205, 3)"><g clip-path="url(#c6fae2ac3d)"><g fill="#4ade80" fill-opacity="1"><g transform="translate(0.189937, 130.46051)"><g><path d="M 6.6875 -11.6875 L 6.6875 -31.59375 L 56.078125 -51.015625 L 6.6875 -70.21875 L 6.6875 -90 L 77.46875 -59.390625 L 77.46875 -42.5 Z M 6.6875 -11.6875 "/></g></g></g></g></g></g><g transform="matrix(1, 0, 0, 1, 55, 134)"><g clip-path="url(#11b94e523e)"><g fill="#4ade80" fill-opacity="1"><g transform="translate(3.409147, 25.249958)"><g><path d="M 1.9375 0.953125 L 11.34375 -17.984375 L 17.46875 -14.9375 C 19.789062 -13.78125 21.257812 -12.929688 21.875 -12.390625 C 22.8125 -11.566406 23.40625 -10.492188 23.65625 -9.171875 C 23.914062 -7.859375 23.675781 -6.453125 22.9375 -4.953125 C 22.351562 -3.785156 21.65625 -2.910156 20.84375 -2.328125 C 20.03125 -1.742188 19.179688 -1.382812 18.296875 -1.25 C 17.421875 -1.125 16.617188 -1.160156 15.890625 -1.359375 C 14.878906 -1.628906 13.515625 -2.191406 11.796875 -3.046875 L 9.296875 -4.28125 L 5.75 2.859375 Z M 13.5625 -12.875 L 10.890625 -7.5 L 12.984375 -6.46875 C 14.492188 -5.71875 15.550781 -5.3125 16.15625 -5.25 C 16.757812 -5.195312 17.304688 -5.3125 17.796875 -5.59375 C 18.296875 -5.875 18.6875 -6.296875 18.96875 -6.859375 C 19.3125 -7.546875 19.394531 -8.210938 19.21875 -8.859375 C 19.039062 -9.515625 18.664062 -10.050781 18.09375 -10.46875 C 17.675781 -10.78125 16.78125 -11.273438 15.40625 -11.953125 Z M 13.5625 -12.875 "/></g></g></g><g fill="#4ade80" fill-opacity="1"><g transform="translate(25.181607, 35.621839)"><g><path d="M 8.3125 -8.390625 L 5.0625 -10.234375 C 5.9375 -11.492188 6.960938 -12.296875 8.140625 -12.640625 C 9.328125 -12.984375 10.863281 -12.832031 12.75 -12.1875 C 14.457031 -11.59375 15.65625 -10.945312 16.34375 -10.25 C 17.039062 -9.5625 17.457031 -8.847656 17.59375 -8.109375 C 17.726562 -7.378906 17.507812 -6.179688 16.9375 -4.515625 L 15.34375 -0.0625 C 14.914062 1.207031 14.65625 2.164062 14.5625 2.8125 C 14.476562 3.46875 14.488281 4.195312 14.59375 5 L 10.796875 3.703125 C 10.785156 3.410156 10.796875 2.988281 10.828125 2.4375 C 10.835938 2.1875 10.84375 2.023438 10.84375 1.953125 C 9.96875 2.359375 9.101562 2.59375 8.25 2.65625 C 7.394531 2.71875 6.546875 2.609375 5.703125 2.328125 C 4.210938 1.816406 3.171875 1.007812 2.578125 -0.09375 C 1.992188 -1.195312 1.914062 -2.367188 2.34375 -3.609375 C 2.625 -4.429688 3.070312 -5.09375 3.6875 -5.59375 C 4.300781 -6.101562 5.015625 -6.40625 5.828125 -6.5 C 6.648438 -6.601562 7.773438 -6.554688 9.203125 -6.359375 C 11.097656 -6.078125 12.441406 -5.96875 13.234375 -6.03125 L 13.359375 -6.40625 C 13.609375 -7.144531 13.609375 -7.726562 13.359375 -8.15625 C 13.109375 -8.59375 12.476562 -8.988281 11.46875 -9.34375 C 10.789062 -9.570312 10.210938 -9.613281 9.734375 -9.46875 C 9.253906 -9.332031 8.78125 -8.972656 8.3125 -8.390625 Z M 12.375 -3.546875 C 11.832031 -3.535156 10.988281 -3.597656 9.84375 -3.734375 C 8.707031 -3.878906 7.9375 -3.898438 7.53125 -3.796875 C 6.914062 -3.609375 6.507812 -3.238281 6.3125 -2.6875 C 6.132812 -2.15625 6.175781 -1.625 6.4375 -1.09375 C 6.707031 -0.570312 7.15625 -0.203125 7.78125 0.015625 C 8.46875 0.253906 9.195312 0.25 9.96875 0 C 10.570312 -0.175781 11.023438 -0.492188 11.328125 -0.953125 C 11.535156 -1.242188 11.796875 -1.847656 12.109375 -2.765625 Z M 12.375 -3.546875 "/></g></g></g><g fill="#4ade80" fill-opacity="1"><g transform="translate(44.926558, 42.158685)"><g><path d="M 11.953125 2.484375 L 12.421875 0.234375 C 11.703125 0.921875 10.847656 1.40625 9.859375 1.6875 C 8.878906 1.96875 7.894531 2.003906 6.90625 1.796875 C 5.90625 1.585938 5.046875 1.175781 4.328125 0.5625 C 3.617188 -0.0507812 3.164062 -0.789062 2.96875 -1.65625 C 2.78125 -2.53125 2.832031 -3.675781 3.125 -5.09375 L 5.109375 -14.578125 L 9.078125 -13.75 L 7.640625 -6.875 C 7.203125 -4.757812 7.003906 -3.445312 7.046875 -2.9375 C 7.097656 -2.4375 7.289062 -2.003906 7.625 -1.640625 C 7.957031 -1.273438 8.414062 -1.035156 9 -0.921875 C 9.675781 -0.773438 10.320312 -0.832031 10.9375 -1.09375 C 11.550781 -1.363281 12.007812 -1.753906 12.3125 -2.265625 C 12.625 -2.773438 13.003906 -4.101562 13.453125 -6.25 L 14.78125 -12.5625 L 18.765625 -11.734375 L 15.640625 3.25 Z M 11.953125 2.484375 "/></g></g></g><g fill="#4ade80" fill-opacity="1"><g transform="translate(66.689123, 46.224566)"><g><path d="M 2.109375 0.21875 L 4.328125 -20.8125 L 8.359375 -20.390625 L 6.140625 0.640625 Z M 2.109375 0.21875 "/></g></g></g><g fill="#4ade80" fill-opacity="1"><g transform="translate(78.643078, 47.351749)"><g><path d="M 2.734375 -17.296875 L 2.875 -21.046875 L 6.921875 -20.90625 L 6.78125 -17.15625 Z M 2.125 0.078125 L 2.671875 -15.21875 L 6.71875 -15.078125 L 6.171875 0.21875 Z M 2.125 0.078125 "/></g></g></g><g fill="#4ade80" fill-opacity="1"><g transform="translate(91.0704, 47.919617)"><g><path d="M 15.046875 -8.921875 L 19.265625 -7.921875 C 18.816406 -5.566406 17.894531 -3.773438 16.5 -2.546875 C 15.113281 -1.328125 13.289062 -0.632812 11.03125 -0.46875 C 8.238281 -0.257812 5.867188 -1.039062 3.921875 -2.8125 C 1.972656 -4.59375 0.875 -7.140625 0.625 -10.453125 C 0.363281 -13.960938 1.0625 -16.753906 2.71875 -18.828125 C 4.382812 -20.910156 6.695312 -22.0625 9.65625 -22.28125 C 12.226562 -22.476562 14.378906 -21.875 16.109375 -20.46875 C 17.140625 -19.632812 17.953125 -18.390625 18.546875 -16.734375 L 14.421875 -15.40625 C 14.085938 -16.5 13.503906 -17.328125 12.671875 -17.890625 C 11.835938 -18.460938 10.851562 -18.707031 9.71875 -18.625 C 8.144531 -18.507812 6.914062 -17.851562 6.03125 -16.65625 C 5.144531 -15.46875 4.796875 -13.617188 4.984375 -11.109375 C 5.179688 -8.441406 5.800781 -6.578125 6.84375 -5.515625 C 7.882812 -4.453125 9.171875 -3.976562 10.703125 -4.09375 C 11.835938 -4.175781 12.785156 -4.609375 13.546875 -5.390625 C 14.304688 -6.171875 14.804688 -7.347656 15.046875 -8.921875 Z M 15.046875 -8.921875 "/></g></g></g><g fill="#4ade80" fill-opacity="1"><g transform="translate(116.811802, 45.554937)"><g><path d="M -0.53125 -7.9375 C -0.8125 -9.25 -0.765625 -10.59375 -0.390625 -11.96875 C -0.015625 -13.34375 0.695312 -14.484375 1.75 -15.390625 C 2.800781 -16.296875 4.054688 -16.910156 5.515625 -17.234375 C 7.773438 -17.734375 9.789062 -17.40625 11.5625 -16.25 C 13.332031 -15.09375 14.460938 -13.394531 14.953125 -11.15625 C 15.441406 -8.882812 15.117188 -6.847656 13.984375 -5.046875 C 12.859375 -3.242188 11.1875 -2.097656 8.96875 -1.609375 C 7.601562 -1.316406 6.226562 -1.34375 4.84375 -1.6875 C 3.457031 -2.03125 2.304688 -2.726562 1.390625 -3.78125 C 0.484375 -4.832031 -0.15625 -6.21875 -0.53125 -7.9375 Z M 3.5625 -8.625 C 3.894531 -7.132812 4.5 -6.070312 5.375 -5.4375 C 6.257812 -4.8125 7.21875 -4.609375 8.25 -4.828125 C 9.28125 -5.054688 10.054688 -5.640625 10.578125 -6.578125 C 11.109375 -7.515625 11.207031 -8.738281 10.875 -10.25 C 10.550781 -11.707031 9.953125 -12.753906 9.078125 -13.390625 C 8.210938 -14.035156 7.265625 -14.242188 6.234375 -14.015625 C 5.203125 -13.796875 4.414062 -13.210938 3.875 -12.265625 C 3.34375 -11.316406 3.238281 -10.101562 3.5625 -8.625 Z M 3.5625 -8.625 "/></g></g></g><g fill="#4ade80" fill-opacity="1"><g transform="translate(138.692575, 40.474458)"><g><path d="M 15.21875 -5.484375 L 11.671875 -4.203125 L 10.90625 -6.3125 C 10.625 -5.28125 10.148438 -4.414062 9.484375 -3.71875 C 8.816406 -3.03125 8.078125 -2.539062 7.265625 -2.25 C 5.609375 -1.65625 3.953125 -1.8125 2.296875 -2.71875 C 0.640625 -3.625 -0.613281 -5.273438 -1.46875 -7.671875 C -2.351562 -10.109375 -2.445312 -12.171875 -1.75 -13.859375 C -1.050781 -15.546875 0.171875 -16.703125 1.921875 -17.328125 C 3.523438 -17.910156 5.15625 -17.75 6.8125 -16.84375 L 4.234375 -24 L 8.0625 -25.375 Z M 2.328125 -9.328125 C 2.878906 -7.785156 3.492188 -6.75 4.171875 -6.21875 C 5.140625 -5.445312 6.175781 -5.257812 7.28125 -5.65625 C 8.15625 -5.976562 8.765625 -6.617188 9.109375 -7.578125 C 9.460938 -8.546875 9.367188 -9.769531 8.828125 -11.25 C 8.234375 -12.90625 7.503906 -13.988281 6.640625 -14.5 C 5.785156 -15.019531 4.894531 -15.109375 3.96875 -14.765625 C 3.0625 -14.441406 2.429688 -13.8125 2.078125 -12.875 C 1.722656 -11.9375 1.804688 -10.753906 2.328125 -9.328125 Z M 2.328125 -9.328125 "/></g></g></g><g fill="#4ade80" fill-opacity="1"><g transform="translate(159.663445, 32.578759)"><g><path d="M 7.5625 -9.328125 L 11.484375 -10.578125 C 11.703125 -9.003906 11.484375 -7.617188 10.828125 -6.421875 C 10.179688 -5.222656 9.109375 -4.242188 7.609375 -3.484375 C 5.242188 -2.273438 3.09375 -2.15625 1.15625 -3.125 C -0.382812 -3.914062 -1.632812 -5.253906 -2.59375 -7.140625 C -3.738281 -9.398438 -4.046875 -11.472656 -3.515625 -13.359375 C -2.984375 -15.242188 -1.816406 -16.644531 -0.015625 -17.5625 C 2.015625 -18.59375 3.957031 -18.734375 5.8125 -17.984375 C 7.664062 -17.242188 9.273438 -15.476562 10.640625 -12.6875 L 1.609375 -8.09375 C 2.171875 -7.03125 2.878906 -6.34375 3.734375 -6.03125 C 4.597656 -5.726562 5.441406 -5.785156 6.265625 -6.203125 C 6.835938 -6.492188 7.238281 -6.890625 7.46875 -7.390625 C 7.695312 -7.890625 7.726562 -8.535156 7.5625 -9.328125 Z M 5.9375 -13.078125 C 5.363281 -14.109375 4.679688 -14.765625 3.890625 -15.046875 C 3.097656 -15.328125 2.335938 -15.28125 1.609375 -14.90625 C 0.816406 -14.507812 0.3125 -13.894531 0.09375 -13.0625 C -0.132812 -12.21875 0.0078125 -11.304688 0.53125 -10.328125 Z M 5.9375 -13.078125 "/></g></g></g></g></g></g></g></g></svg>